<?xml version="1.0" encoding="UTF-8" standalone="no"?>
<svg
   xmlns:dc="http://purl.org/dc/elements/1.1/"
   xmlns:cc="http://creativecommons.org/ns#"
   xmlns:rdf="http://www.w3.org/1999/02/22-rdf-syntax-ns#"
   xmlns:svg="http://www.w3.org/2000/svg"
   xmlns="http://www.w3.org/2000/svg"
   xmlns:xlink="http://www.w3.org/1999/xlink"
   xmlns:sodipodi="http://sodipodi.sourceforge.net/DTD/sodipodi-0.dtd"
   xmlns:inkscape="http://www.inkscape.org/namespaces/inkscape"
   inkscape:version="1.0 (6e3e5246a0, 2020-05-07)"
   sodipodi:docname="qr-scan-icon.svg"
   id="svg3191"
   version="1.1"
   viewBox="0 0 78.734375 78.734375"
   height="78.734375"
   width="78.734375">
  <metadata
     id="metadata3195">
    <rdf:RDF>
      <cc:Work
         rdf:about="">
        <dc:format>image/svg+xml</dc:format>
        <dc:type
           rdf:resource="http://purl.org/dc/dcmitype/StillImage" />
        <dc:title></dc:title>
      </cc:Work>
    </rdf:RDF>
  </metadata>
  <sodipodi:namedview
     fit-margin-bottom="0"
     fit-margin-right="0"
     fit-margin-left="0"
     fit-margin-top="0"
     inkscape:current-layer="svg3191"
     inkscape:window-maximized="1"
     inkscape:window-y="4"
     inkscape:window-x="0"
     inkscape:cy="39.367188"
     inkscape:cx="39.367188"
     inkscape:zoom="3.0517241"
     showgrid="false"
     id="namedview3193"
     inkscape:window-height="1616"
     inkscape:window-width="2880"
     inkscape:pageshadow="2"
     inkscape:pageopacity="0"
     guidetolerance="10"
     gridtolerance="10"
     objecttolerance="10"
     borderopacity="1"
     bordercolor="#666666"
     pagecolor="#ffffff" />
  <defs
     id="defs2743">
    <rect
       y="0"
       x="0"
       height="8"
       width="8"
       id="p" />
  </defs>
  <path
     d="m 15.13399,12.393235 a 2.7410288,2.7410288 0 0 0 -2.740755,2.740755 v 14.439816 h 5.481508 V 17.874744 h 11.699062 v -5.481509 z m 34.026578,0 v 5.481508 h 11.699063 v 11.699062 h 5.481508 V 15.13399 A 2.7410288,2.7410288 0 0 0 63.600384,12.393235 Z M 12.393235,49.160567 v 14.439817 a 2.7410288,2.7410288 0 0 0 2.740755,2.740755 H 29.573806 V 60.859631 H 17.874744 V 49.160567 Z m 48.466396,0 V 60.859631 H 49.160567 v 5.481508 h 14.439817 a 2.7410288,2.7410288 0 0 0 2.740755,-2.740755 V 49.160567 Z"
     style="color:#000000;font-style:normal;font-variant:normal;font-weight:normal;font-stretch:normal;font-size:medium;line-height:normal;font-family:sans-serif;font-variant-ligatures:normal;font-variant-position:normal;font-variant-caps:normal;font-variant-numeric:normal;font-variant-alternates:normal;font-variant-east-asian:normal;font-feature-settings:normal;font-variation-settings:normal;text-indent:0;text-align:start;text-decoration:none;text-decoration-line:none;text-decoration-style:solid;text-decoration-color:#000000;letter-spacing:normal;word-spacing:normal;text-transform:none;writing-mode:lr-tb;direction:ltr;text-orientation:mixed;dominant-baseline:auto;baseline-shift:baseline;text-anchor:start;white-space:normal;shape-padding:0;shape-margin:0;inline-size:0;clip-rule:nonzero;display:inline;overflow:visible;visibility:visible;opacity:1;isolation:auto;mix-blend-mode:normal;color-interpolation:sRGB;color-interpolation-filters:linearRGB;solid-color:#000000;solid-opacity:1;vector-effect:none;fill:#000000;fill-opacity:0.72964;fill-rule:nonzero;stroke:none;stroke-width:5.48151;stroke-linecap:butt;stroke-linejoin:round;stroke-miterlimit:4;stroke-dasharray:none;stroke-dashoffset:0;stroke-opacity:1;color-rendering:auto;image-rendering:auto;shape-rendering:auto;text-rendering:auto;enable-background:accumulate;stop-color:#000000;stop-opacity:1"
     id="path3257" />
  <g
     transform="matrix(0.22356096,0,0,0.22356096,13.434117,13.434117)"
     id="g3189"
     fill="#000000">
    <use
       height="100%"
       width="100%"
       id="use2745"
       y="32"
       x="32"
       xlink:href="#p" />
    <use
       height="100%"
       width="100%"
       id="use2747"
       y="40"
       x="32"
       xlink:href="#p" />
    <use
       height="100%"
       width="100%"
       id="use2749"
       y="48"
       x="32"
       xlink:href="#p" />
    <use
       height="100%"
       width="100%"
       id="use2751"
       y="56"
       x="32"
       xlink:href="#p" />
    <use
       height="100%"
       width="100%"
       id="use2753"
       y="64"
       x="32"
       xlink:href="#p" />
    <use
       height="100%"
       width="100%"
       id="use2755"
       y="72"
       x="32"
       xlink:href="#p" />
    <use
       height="100%"
       width="100%"
       id="use2757"
       y="80"
       x="32"
       xlink:href="#p" />
    <use
       height="100%"
       width="100%"
       id="use2759"
       y="96"
       x="32"
       xlink:href="#p" />
    <use
       height="100%"
       width="100%"
       id="use2761"
       y="104"
       x="32"
       xlink:href="#p" />
    <use
       height="100%"
       width="100%"
       id="use2763"
       y="128"
       x="32"
       xlink:href="#p" />
    <use
       height="100%"
       width="100%"
       id="use2765"
       y="144"
       x="32"
       xlink:href="#p" />
    <use
       height="100%"
       width="100%"
       id="use2767"
       y="152"
       x="32"
       xlink:href="#p" />
    <use
       height="100%"
       width="100%"
       id="use2769"
       y="160"
       x="32"
       xlink:href="#p" />
    <use
       height="100%"
       width="100%"
       id="use2771"
       y="168"
       x="32"
       xlink:href="#p" />
    <use
       height="100%"
       width="100%"
       id="use2773"
       y="176"
       x="32"
       xlink:href="#p" />
    <use
       height="100%"
       width="100%"
       id="use2775"
       y="184"
       x="32"
       xlink:href="#p" />
    <use
       height="100%"
       width="100%"
       id="use2777"
       y="192"
       x="32"
       xlink:href="#p" />
    <use
       height="100%"
       width="100%"
       id="use2779"
       y="32"
       x="40"
       xlink:href="#p" />
    <use
       height="100%"
       width="100%"
       id="use2781"
       y="80"
       x="40"
       xlink:href="#p" />
    <use
       height="100%"
       width="100%"
       id="use2783"
       y="96"
       x="40"
       xlink:href="#p" />
    <use
       height="100%"
       width="100%"
       id="use2785"
       y="104"
       x="40"
       xlink:href="#p" />
    <use
       height="100%"
       width="100%"
       id="use2787"
       y="120"
       x="40"
       xlink:href="#p" />
    <use
       height="100%"
       width="100%"
       id="use2789"
       y="128"
       x="40"
       xlink:href="#p" />
    <use
       height="100%"
       width="100%"
       id="use2791"
       y="144"
       x="40"
       xlink:href="#p" />
    <use
       height="100%"
       width="100%"
       id="use2793"
       y="192"
       x="40"
       xlink:href="#p" />
    <use
       height="100%"
       width="100%"
       id="use2795"
       y="32"
       x="48"
       xlink:href="#p" />
    <use
       height="100%"
       width="100%"
       id="use2797"
       y="48"
       x="48"
       xlink:href="#p" />
    <use
       height="100%"
       width="100%"
       id="use2799"
       y="56"
       x="48"
       xlink:href="#p" />
    <use
       height="100%"
       width="100%"
       id="use2801"
       y="64"
       x="48"
       xlink:href="#p" />
    <use
       height="100%"
       width="100%"
       id="use2803"
       y="80"
       x="48"
       xlink:href="#p" />
    <use
       height="100%"
       width="100%"
       id="use2805"
       y="96"
       x="48"
       xlink:href="#p" />
    <use
       height="100%"
       width="100%"
       id="use2807"
       y="112"
       x="48"
       xlink:href="#p" />
    <use
       height="100%"
       width="100%"
       id="use2809"
       y="144"
       x="48"
       xlink:href="#p" />
    <use
       height="100%"
       width="100%"
       id="use2811"
       y="160"
       x="48"
       xlink:href="#p" />
    <use
       height="100%"
       width="100%"
       id="use2813"
       y="168"
       x="48"
       xlink:href="#p" />
    <use
       height="100%"
       width="100%"
       id="use2815"
       y="176"
       x="48"
       xlink:href="#p" />
    <use
       height="100%"
       width="100%"
       id="use2817"
       y="192"
       x="48"
       xlink:href="#p" />
    <use
       height="100%"
       width="100%"
       id="use2819"
       y="32"
       x="56"
       xlink:href="#p" />
    <use
       height="100%"
       width="100%"
       id="use2821"
       y="48"
       x="56"
       xlink:href="#p" />
    <use
       height="100%"
       width="100%"
       id="use2823"
       y="56"
       x="56"
       xlink:href="#p" />
    <use
       height="100%"
       width="100%"
       id="use2825"
       y="64"
       x="56"
       xlink:href="#p" />
    <use
       height="100%"
       width="100%"
       id="use2827"
       y="80"
       x="56"
       xlink:href="#p" />
    <use
       height="100%"
       width="100%"
       id="use2829"
       y="96"
       x="56"
       xlink:href="#p" />
    <use
       height="100%"
       width="100%"
       id="use2831"
       y="104"
       x="56"
       xlink:href="#p" />
    <use
       height="100%"
       width="100%"
       id="use2833"
       y="128"
       x="56"
       xlink:href="#p" />
    <use
       height="100%"
       width="100%"
       id="use2835"
       y="144"
       x="56"
       xlink:href="#p" />
    <use
       height="100%"
       width="100%"
       id="use2837"
       y="160"
       x="56"
       xlink:href="#p" />
    <use
       height="100%"
       width="100%"
       id="use2839"
       y="168"
       x="56"
       xlink:href="#p" />
    <use
       height="100%"
       width="100%"
       id="use2841"
       y="176"
       x="56"
       xlink:href="#p" />
    <use
       height="100%"
       width="100%"
       id="use2843"
       y="192"
       x="56"
       xlink:href="#p" />
    <use
       height="100%"
       width="100%"
       id="use2845"
       y="32"
       x="64"
       xlink:href="#p" />
    <use
       height="100%"
       width="100%"
       id="use2847"
       y="48"
       x="64"
       xlink:href="#p" />
    <use
       height="100%"
       width="100%"
       id="use2849"
       y="56"
       x="64"
       xlink:href="#p" />
    <use
       height="100%"
       width="100%"
       id="use2851"
       y="64"
       x="64"
       xlink:href="#p" />
    <use
       height="100%"
       width="100%"
       id="use2853"
       y="80"
       x="64"
       xlink:href="#p" />
    <use
       height="100%"
       width="100%"
       id="use2855"
       y="96"
       x="64"
       xlink:href="#p" />
    <use
       height="100%"
       width="100%"
       id="use2857"
       y="112"
       x="64"
       xlink:href="#p" />
    <use
       height="100%"
       width="100%"
       id="use2859"
       y="120"
       x="64"
       xlink:href="#p" />
    <use
       height="100%"
       width="100%"
       id="use2861"
       y="144"
       x="64"
       xlink:href="#p" />
    <use
       height="100%"
       width="100%"
       id="use2863"
       y="160"
       x="64"
       xlink:href="#p" />
    <use
       height="100%"
       width="100%"
       id="use2865"
       y="168"
       x="64"
       xlink:href="#p" />
    <use
       height="100%"
       width="100%"
       id="use2867"
       y="176"
       x="64"
       xlink:href="#p" />
    <use
       height="100%"
       width="100%"
       id="use2869"
       y="192"
       x="64"
       xlink:href="#p" />
    <use
       height="100%"
       width="100%"
       id="use2871"
       y="32"
       x="72"
       xlink:href="#p" />
    <use
       height="100%"
       width="100%"
       id="use2873"
       y="80"
       x="72"
       xlink:href="#p" />
    <use
       height="100%"
       width="100%"
       id="use2875"
       y="112"
       x="72"
       xlink:href="#p" />
    <use
       height="100%"
       width="100%"
       id="use2877"
       y="128"
       x="72"
       xlink:href="#p" />
    <use
       height="100%"
       width="100%"
       id="use2879"
       y="144"
       x="72"
       xlink:href="#p" />
    <use
       height="100%"
       width="100%"
       id="use2881"
       y="192"
       x="72"
       xlink:href="#p" />
    <use
       height="100%"
       width="100%"
       id="use2883"
       y="32"
       x="80"
       xlink:href="#p" />
    <use
       height="100%"
       width="100%"
       id="use2885"
       y="40"
       x="80"
       xlink:href="#p" />
    <use
       height="100%"
       width="100%"
       id="use2887"
       y="48"
       x="80"
       xlink:href="#p" />
    <use
       height="100%"
       width="100%"
       id="use2889"
       y="56"
       x="80"
       xlink:href="#p" />
    <use
       height="100%"
       width="100%"
       id="use2891"
       y="64"
       x="80"
       xlink:href="#p" />
    <use
       height="100%"
       width="100%"
       id="use2893"
       y="72"
       x="80"
       xlink:href="#p" />
    <use
       height="100%"
       width="100%"
       id="use2895"
       y="80"
       x="80"
       xlink:href="#p" />
    <use
       height="100%"
       width="100%"
       id="use2897"
       y="96"
       x="80"
       xlink:href="#p" />
    <use
       height="100%"
       width="100%"
       id="use2899"
       y="112"
       x="80"
       xlink:href="#p" />
    <use
       height="100%"
       width="100%"
       id="use2901"
       y="128"
       x="80"
       xlink:href="#p" />
    <use
       height="100%"
       width="100%"
       id="use2903"
       y="144"
       x="80"
       xlink:href="#p" />
    <use
       height="100%"
       width="100%"
       id="use2905"
       y="152"
       x="80"
       xlink:href="#p" />
    <use
       height="100%"
       width="100%"
       id="use2907"
       y="160"
       x="80"
       xlink:href="#p" />
    <use
       height="100%"
       width="100%"
       id="use2909"
       y="168"
       x="80"
       xlink:href="#p" />
    <use
       height="100%"
       width="100%"
       id="use2911"
       y="176"
       x="80"
       xlink:href="#p" />
    <use
       height="100%"
       width="100%"
       id="use2913"
       y="184"
       x="80"
       xlink:href="#p" />
    <use
       height="100%"
       width="100%"
       id="use2915"
       y="192"
       x="80"
       xlink:href="#p" />
    <use
       height="100%"
       width="100%"
       id="use2917"
       y="96"
       x="88"
       xlink:href="#p" />
    <use
       height="100%"
       width="100%"
       id="use2919"
       y="128"
       x="88"
       xlink:href="#p" />
    <use
       height="100%"
       width="100%"
       id="use2921"
       y="40"
       x="96"
       xlink:href="#p" />
    <use
       height="100%"
       width="100%"
       id="use2923"
       y="56"
       x="96"
       xlink:href="#p" />
    <use
       height="100%"
       width="100%"
       id="use2925"
       y="72"
       x="96"
       xlink:href="#p" />
    <use
       height="100%"
       width="100%"
       id="use2927"
       y="80"
       x="96"
       xlink:href="#p" />
    <use
       height="100%"
       width="100%"
       id="use2929"
       y="96"
       x="96"
       xlink:href="#p" />
    <use
       height="100%"
       width="100%"
       id="use2931"
       y="120"
       x="96"
       xlink:href="#p" />
    <use
       height="100%"
       width="100%"
       id="use2933"
       y="128"
       x="96"
       xlink:href="#p" />
    <use
       height="100%"
       width="100%"
       id="use2935"
       y="136"
       x="96"
       xlink:href="#p" />
    <use
       height="100%"
       width="100%"
       id="use2937"
       y="144"
       x="96"
       xlink:href="#p" />
    <use
       height="100%"
       width="100%"
       id="use2939"
       y="160"
       x="96"
       xlink:href="#p" />
    <use
       height="100%"
       width="100%"
       id="use2941"
       y="168"
       x="96"
       xlink:href="#p" />
    <use
       height="100%"
       width="100%"
       id="use2943"
       y="176"
       x="96"
       xlink:href="#p" />
    <use
       height="100%"
       width="100%"
       id="use2945"
       y="184"
       x="96"
       xlink:href="#p" />
    <use
       height="100%"
       width="100%"
       id="use2947"
       y="192"
       x="96"
       xlink:href="#p" />
    <use
       height="100%"
       width="100%"
       id="use2949"
       y="32"
       x="104"
       xlink:href="#p" />
    <use
       height="100%"
       width="100%"
       id="use2951"
       y="48"
       x="104"
       xlink:href="#p" />
    <use
       height="100%"
       width="100%"
       id="use2953"
       y="72"
       x="104"
       xlink:href="#p" />
    <use
       height="100%"
       width="100%"
       id="use2955"
       y="96"
       x="104"
       xlink:href="#p" />
    <use
       height="100%"
       width="100%"
       id="use2957"
       y="112"
       x="104"
       xlink:href="#p" />
    <use
       height="100%"
       width="100%"
       id="use2959"
       y="128"
       x="104"
       xlink:href="#p" />
    <use
       height="100%"
       width="100%"
       id="use2961"
       y="136"
       x="104"
       xlink:href="#p" />
    <use
       height="100%"
       width="100%"
       id="use2963"
       y="160"
       x="104"
       xlink:href="#p" />
    <use
       height="100%"
       width="100%"
       id="use2965"
       y="64"
       x="112"
       xlink:href="#p" />
    <use
       height="100%"
       width="100%"
       id="use2967"
       y="72"
       x="112"
       xlink:href="#p" />
    <use
       height="100%"
       width="100%"
       id="use2969"
       y="80"
       x="112"
       xlink:href="#p" />
    <use
       height="100%"
       width="100%"
       id="use2971"
       y="88"
       x="112"
       xlink:href="#p" />
    <use
       height="100%"
       width="100%"
       id="use2973"
       y="104"
       x="112"
       xlink:href="#p" />
    <use
       height="100%"
       width="100%"
       id="use2975"
       y="112"
       x="112"
       xlink:href="#p" />
    <use
       height="100%"
       width="100%"
       id="use2977"
       y="120"
       x="112"
       xlink:href="#p" />
    <use
       height="100%"
       width="100%"
       id="use2979"
       y="128"
       x="112"
       xlink:href="#p" />
    <use
       height="100%"
       width="100%"
       id="use2981"
       y="144"
       x="112"
       xlink:href="#p" />
    <use
       height="100%"
       width="100%"
       id="use2983"
       y="160"
       x="112"
       xlink:href="#p" />
    <use
       height="100%"
       width="100%"
       id="use2985"
       y="168"
       x="112"
       xlink:href="#p" />
    <use
       height="100%"
       width="100%"
       id="use2987"
       y="176"
       x="112"
       xlink:href="#p" />
    <use
       height="100%"
       width="100%"
       id="use2989"
       y="184"
       x="112"
       xlink:href="#p" />
    <use
       height="100%"
       width="100%"
       id="use2991"
       y="40"
       x="120"
       xlink:href="#p" />
    <use
       height="100%"
       width="100%"
       id="use2993"
       y="56"
       x="120"
       xlink:href="#p" />
    <use
       height="100%"
       width="100%"
       id="use2995"
       y="64"
       x="120"
       xlink:href="#p" />
    <use
       height="100%"
       width="100%"
       id="use2997"
       y="88"
       x="120"
       xlink:href="#p" />
    <use
       height="100%"
       width="100%"
       id="use2999"
       y="112"
       x="120"
       xlink:href="#p" />
    <use
       height="100%"
       width="100%"
       id="use3001"
       y="128"
       x="120"
       xlink:href="#p" />
    <use
       height="100%"
       width="100%"
       id="use3003"
       y="136"
       x="120"
       xlink:href="#p" />
    <use
       height="100%"
       width="100%"
       id="use3005"
       y="152"
       x="120"
       xlink:href="#p" />
    <use
       height="100%"
       width="100%"
       id="use3007"
       y="176"
       x="120"
       xlink:href="#p" />
    <use
       height="100%"
       width="100%"
       id="use3009"
       y="192"
       x="120"
       xlink:href="#p" />
    <use
       height="100%"
       width="100%"
       id="use3011"
       y="32"
       x="128"
       xlink:href="#p" />
    <use
       height="100%"
       width="100%"
       id="use3013"
       y="64"
       x="128"
       xlink:href="#p" />
    <use
       height="100%"
       width="100%"
       id="use3015"
       y="72"
       x="128"
       xlink:href="#p" />
    <use
       height="100%"
       width="100%"
       id="use3017"
       y="80"
       x="128"
       xlink:href="#p" />
    <use
       height="100%"
       width="100%"
       id="use3019"
       y="88"
       x="128"
       xlink:href="#p" />
    <use
       height="100%"
       width="100%"
       id="use3021"
       y="96"
       x="128"
       xlink:href="#p" />
    <use
       height="100%"
       width="100%"
       id="use3023"
       y="104"
       x="128"
       xlink:href="#p" />
    <use
       height="100%"
       width="100%"
       id="use3025"
       y="136"
       x="128"
       xlink:href="#p" />
    <use
       height="100%"
       width="100%"
       id="use3027"
       y="144"
       x="128"
       xlink:href="#p" />
    <use
       height="100%"
       width="100%"
       id="use3029"
       y="152"
       x="128"
       xlink:href="#p" />
    <use
       height="100%"
       width="100%"
       id="use3031"
       y="160"
       x="128"
       xlink:href="#p" />
    <use
       height="100%"
       width="100%"
       id="use3033"
       y="168"
       x="128"
       xlink:href="#p" />
    <use
       height="100%"
       width="100%"
       id="use3035"
       y="96"
       x="136"
       xlink:href="#p" />
    <use
       height="100%"
       width="100%"
       id="use3037"
       y="112"
       x="136"
       xlink:href="#p" />
    <use
       height="100%"
       width="100%"
       id="use3039"
       y="128"
       x="136"
       xlink:href="#p" />
    <use
       height="100%"
       width="100%"
       id="use3041"
       y="136"
       x="136"
       xlink:href="#p" />
    <use
       height="100%"
       width="100%"
       id="use3043"
       y="152"
       x="136"
       xlink:href="#p" />
    <use
       height="100%"
       width="100%"
       id="use3045"
       y="176"
       x="136"
       xlink:href="#p" />
    <use
       height="100%"
       width="100%"
       id="use3047"
       y="192"
       x="136"
       xlink:href="#p" />
    <use
       height="100%"
       width="100%"
       id="use3049"
       y="32"
       x="144"
       xlink:href="#p" />
    <use
       height="100%"
       width="100%"
       id="use3051"
       y="40"
       x="144"
       xlink:href="#p" />
    <use
       height="100%"
       width="100%"
       id="use3053"
       y="48"
       x="144"
       xlink:href="#p" />
    <use
       height="100%"
       width="100%"
       id="use3055"
       y="56"
       x="144"
       xlink:href="#p" />
    <use
       height="100%"
       width="100%"
       id="use3057"
       y="64"
       x="144"
       xlink:href="#p" />
    <use
       height="100%"
       width="100%"
       id="use3059"
       y="72"
       x="144"
       xlink:href="#p" />
    <use
       height="100%"
       width="100%"
       id="use3061"
       y="80"
       x="144"
       xlink:href="#p" />
    <use
       height="100%"
       width="100%"
       id="use3063"
       y="136"
       x="144"
       xlink:href="#p" />
    <use
       height="100%"
       width="100%"
       id="use3065"
       y="144"
       x="144"
       xlink:href="#p" />
    <use
       height="100%"
       width="100%"
       id="use3067"
       y="152"
       x="144"
       xlink:href="#p" />
    <use
       height="100%"
       width="100%"
       id="use3069"
       y="32"
       x="152"
       xlink:href="#p" />
    <use
       height="100%"
       width="100%"
       id="use3071"
       y="80"
       x="152"
       xlink:href="#p" />
    <use
       height="100%"
       width="100%"
       id="use3073"
       y="96"
       x="152"
       xlink:href="#p" />
    <use
       height="100%"
       width="100%"
       id="use3075"
       y="104"
       x="152"
       xlink:href="#p" />
    <use
       height="100%"
       width="100%"
       id="use3077"
       y="120"
       x="152"
       xlink:href="#p" />
    <use
       height="100%"
       width="100%"
       id="use3079"
       y="144"
       x="152"
       xlink:href="#p" />
    <use
       height="100%"
       width="100%"
       id="use3081"
       y="160"
       x="152"
       xlink:href="#p" />
    <use
       height="100%"
       width="100%"
       id="use3083"
       y="168"
       x="152"
       xlink:href="#p" />
    <use
       height="100%"
       width="100%"
       id="use3085"
       y="184"
       x="152"
       xlink:href="#p" />
    <use
       height="100%"
       width="100%"
       id="use3087"
       y="32"
       x="160"
       xlink:href="#p" />
    <use
       height="100%"
       width="100%"
       id="use3089"
       y="48"
       x="160"
       xlink:href="#p" />
    <use
       height="100%"
       width="100%"
       id="use3091"
       y="56"
       x="160"
       xlink:href="#p" />
    <use
       height="100%"
       width="100%"
       id="use3093"
       y="64"
       x="160"
       xlink:href="#p" />
    <use
       height="100%"
       width="100%"
       id="use3095"
       y="80"
       x="160"
       xlink:href="#p" />
    <use
       height="100%"
       width="100%"
       id="use3097"
       y="112"
       x="160"
       xlink:href="#p" />
    <use
       height="100%"
       width="100%"
       id="use3099"
       y="120"
       x="160"
       xlink:href="#p" />
    <use
       height="100%"
       width="100%"
       id="use3101"
       y="128"
       x="160"
       xlink:href="#p" />
    <use
       height="100%"
       width="100%"
       id="use3103"
       y="176"
       x="160"
       xlink:href="#p" />
    <use
       height="100%"
       width="100%"
       id="use3105"
       y="184"
       x="160"
       xlink:href="#p" />
    <use
       height="100%"
       width="100%"
       id="use3107"
       y="192"
       x="160"
       xlink:href="#p" />
    <use
       height="100%"
       width="100%"
       id="use3109"
       y="32"
       x="168"
       xlink:href="#p" />
    <use
       height="100%"
       width="100%"
       id="use3111"
       y="48"
       x="168"
       xlink:href="#p" />
    <use
       height="100%"
       width="100%"
       id="use3113"
       y="56"
       x="168"
       xlink:href="#p" />
    <use
       height="100%"
       width="100%"
       id="use3115"
       y="64"
       x="168"
       xlink:href="#p" />
    <use
       height="100%"
       width="100%"
       id="use3117"
       y="80"
       x="168"
       xlink:href="#p" />
    <use
       height="100%"
       width="100%"
       id="use3119"
       y="96"
       x="168"
       xlink:href="#p" />
    <use
       height="100%"
       width="100%"
       id="use3121"
       y="136"
       x="168"
       xlink:href="#p" />
    <use
       height="100%"
       width="100%"
       id="use3123"
       y="152"
       x="168"
       xlink:href="#p" />
    <use
       height="100%"
       width="100%"
       id="use3125"
       y="176"
       x="168"
       xlink:href="#p" />
    <use
       height="100%"
       width="100%"
       id="use3127"
       y="192"
       x="168"
       xlink:href="#p" />
    <use
       height="100%"
       width="100%"
       id="use3129"
       y="32"
       x="176"
       xlink:href="#p" />
    <use
       height="100%"
       width="100%"
       id="use3131"
       y="48"
       x="176"
       xlink:href="#p" />
    <use
       height="100%"
       width="100%"
       id="use3133"
       y="56"
       x="176"
       xlink:href="#p" />
    <use
       height="100%"
       width="100%"
       id="use3135"
       y="64"
       x="176"
       xlink:href="#p" />
    <use
       height="100%"
       width="100%"
       id="use3137"
       y="80"
       x="176"
       xlink:href="#p" />
    <use
       height="100%"
       width="100%"
       id="use3139"
       y="104"
       x="176"
       xlink:href="#p" />
    <use
       height="100%"
       width="100%"
       id="use3141"
       y="120"
       x="176"
       xlink:href="#p" />
    <use
       height="100%"
       width="100%"
       id="use3143"
       y="128"
       x="176"
       xlink:href="#p" />
    <use
       height="100%"
       width="100%"
       id="use3145"
       y="160"
       x="176"
       xlink:href="#p" />
    <use
       height="100%"
       width="100%"
       id="use3147"
       y="168"
       x="176"
       xlink:href="#p" />
    <use
       height="100%"
       width="100%"
       id="use3149"
       y="176"
       x="176"
       xlink:href="#p" />
    <use
       height="100%"
       width="100%"
       id="use3151"
       y="184"
       x="176"
       xlink:href="#p" />
    <use
       height="100%"
       width="100%"
       id="use3153"
       y="192"
       x="176"
       xlink:href="#p" />
    <use
       height="100%"
       width="100%"
       id="use3155"
       y="32"
       x="184"
       xlink:href="#p" />
    <use
       height="100%"
       width="100%"
       id="use3157"
       y="80"
       x="184"
       xlink:href="#p" />
    <use
       height="100%"
       width="100%"
       id="use3159"
       y="96"
       x="184"
       xlink:href="#p" />
    <use
       height="100%"
       width="100%"
       id="use3161"
       y="104"
       x="184"
       xlink:href="#p" />
    <use
       height="100%"
       width="100%"
       id="use3163"
       y="112"
       x="184"
       xlink:href="#p" />
    <use
       height="100%"
       width="100%"
       id="use3165"
       y="120"
       x="184"
       xlink:href="#p" />
    <use
       height="100%"
       width="100%"
       id="use3167"
       y="136"
       x="184"
       xlink:href="#p" />
    <use
       height="100%"
       width="100%"
       id="use3169"
       y="144"
       x="184"
       xlink:href="#p" />
    <use
       height="100%"
       width="100%"
       id="use3171"
       y="192"
       x="184"
       xlink:href="#p" />
    <use
       height="100%"
       width="100%"
       id="use3173"
       y="32"
       x="192"
       xlink:href="#p" />
    <use
       height="100%"
       width="100%"
       id="use3175"
       y="40"
       x="192"
       xlink:href="#p" />
    <use
       height="100%"
       width="100%"
       id="use3177"
       y="48"
       x="192"
       xlink:href="#p" />
    <use
       height="100%"
       width="100%"
       id="use3179"
       y="56"
       x="192"
       xlink:href="#p" />
    <use
       height="100%"
       width="100%"
       id="use3181"
       y="64"
       x="192"
       xlink:href="#p" />
    <use
       height="100%"
       width="100%"
       id="use3183"
       y="72"
       x="192"
       xlink:href="#p" />
    <use
       height="100%"
       width="100%"
       id="use3185"
       y="80"
       x="192"
       xlink:href="#p" />
    <use
       height="100%"
       width="100%"
       id="use3187"
       y="152"
       x="192"
       xlink:href="#p" />
  </g>
</svg>
