<?xml version="1.0" encoding="UTF-8" standalone="no"?>
<svg
   xmlns:dc="http://purl.org/dc/elements/1.1/"
   xmlns:cc="http://creativecommons.org/ns#"
   xmlns:rdf="http://www.w3.org/1999/02/22-rdf-syntax-ns#"
   xmlns:svg="http://www.w3.org/2000/svg"
   xmlns="http://www.w3.org/2000/svg"
   xmlns:sodipodi="http://sodipodi.sourceforge.net/DTD/sodipodi-0.dtd"
   xmlns:inkscape="http://www.inkscape.org/namespaces/inkscape"
   inkscape:version="1.1-dev (1:0.92.0+devel+201912171125+2c30fa0)"
   sodipodi:docname="wallet.svg"
   xml:space="preserve"
   style="enable-background:new 0 0 32 32;"
   viewBox="0 0 32 32"
   y="0px"
   x="0px"
   id="Capa_1"
   version="1.1"><metadata
   id="metadata971"><rdf:RDF><cc:Work
       rdf:about=""><dc:format>image/svg+xml</dc:format><dc:type
         rdf:resource="http://purl.org/dc/dcmitype/StillImage" /></cc:Work></rdf:RDF></metadata><defs
   id="defs969" /><sodipodi:namedview
   inkscape:current-layer="g934"
   inkscape:window-maximized="1"
   inkscape:window-y="815"
   inkscape:window-x="0"
   inkscape:cy="16"
   inkscape:cx="16"
   inkscape:zoom="18.78125"
   showgrid="false"
   id="namedview967"
   inkscape:window-height="805"
   inkscape:window-width="1680"
   inkscape:pageshadow="2"
   inkscape:pageopacity="0"
   guidetolerance="10"
   gridtolerance="10"
   objecttolerance="10"
   borderopacity="1"
   inkscape:document-rotation="0"
   bordercolor="#666666"
   pagecolor="#ffffff" />
<g
   id="g934">
	<g
   style="fill:#ffffff;fill-opacity:1"
   id="vallet_1_">
		<circle
   id="circle929"
   r="2"
   cy="19.5"
   cx="18"
   style="fill:#ffffff;fill-opacity:1" />
		<path
   id="path931"
   d="M29.001,12.5C29,12.5,29,12.5,29.001,12.5L29,6.5V6V3.5c0-1.657-1.344-3-3-3h-4H5.5    C2.467,0.5,0,2.968,0,6v20c0,3.032,2.467,5.5,5.5,5.5h18c3.032,0,5.5-2.468,5.5-5.5v-1.5c0,0,0,0,0.001,0    C32.999,21.499,32.999,15.501,29.001,12.5z M5.5,2.5H22h4c0.551,0,1,0.448,1,1V6v0.5v3.184C26.686,9.572,26.352,9.5,26,9.5h-0.001    v-1v-2v-2c0-0.553-0.448-1-1-1h-21c-0.552,0-1,0.447-1,1v2v1.943C2.382,7.812,2,6.952,2,6C2,4.067,3.566,2.5,5.5,2.5z M24.999,5.5    h-21v-1h21V5.5z M24.999,6.5v1h-21v-1H24.999z M24.999,8.5v1H22H5.5C4.96,9.5,4.456,9.368,4,9.15V8.5H24.999z M27,26    c0,1.933-1.567,3.5-3.5,3.5h-18C3.566,29.5,2,27.933,2,26V10.239C2.951,11.026,4.171,11.5,5.5,11.5H22h4c0.551,0,1,0.448,1,1v2h-9    c-2.762,0-5,2.238-5,5s2.239,5,5,5h9V26z M28.277,22.5H18c-1.654,0-3-1.346-3-3s1.346-3,3-3h9    c0.617-0.008,1.229-0.307,1.602-0.804c0.104-0.14,0.185-0.297,0.25-0.461c0.009-0.022,0.025-0.039,0.033-0.062    C29.604,16.116,30,17.272,30,18.5C30,20.038,29.379,21.465,28.277,22.5z"
   style="fill:#ffffff;fill-opacity:1" />
	</g>
</g>
<g
   id="g936">
</g>
<g
   id="g938">
</g>
<g
   id="g940">
</g>
<g
   id="g942">
</g>
<g
   id="g944">
</g>
<g
   id="g946">
</g>
<g
   id="g948">
</g>
<g
   id="g950">
</g>
<g
   id="g952">
</g>
<g
   id="g954">
</g>
<g
   id="g956">
</g>
<g
   id="g958">
</g>
<g
   id="g960">
</g>
<g
   id="g962">
</g>
<g
   id="g964">
</g>
</svg>
